<?xml version="1.0" encoding="utf-8"?>
<!-- Generator: Adobe Illustrator 22.0.1, SVG Export Plug-In . SVG Version: 6.00 Build 0)  -->
<svg version="1.1" id="Ebene_1" xmlns="http://www.w3.org/2000/svg" xmlns:xlink="http://www.w3.org/1999/xlink" x="0px" y="0px"
	 viewBox="0 0 702 702" style="enable-background:new 0 0 702 702;" xml:space="preserve">
<style type="text/css">
	.st0{display:none;fill:#80FE01;}
	.st1{fill:#FFFFFF;}
</style>
<rect class="st0" width="702" height="702"/>
<circle class="st0" cx="351" cy="351" r="340"/>
<path class="st1" d="M355.9,669.3c-33.2,0-61.1-7.3-86.8-22.1c-18.3-10.6-34-24.2-47.4-40.9c-13.6-17-23.5-35.8-29.7-56.5
	c-3.3-10.8-5.4-21.9-6.4-33.3c-0.5-5.7-0.8-11.5-0.7-17.2c0.2-12.6,1.9-25,4.7-37.3c6-26.2,19.5-48.6,34.6-70.3
	c15-21.5,28.2-44.1,40.7-67.1c13-24.1,24.5-48.9,34.7-74.3c11.7-29.1,21.1-58.8,29-89.2c3.9-15.3,7-30.7,10.5-46
	c2.8-12.2,4.1-24.7,5.7-37.1c1.7-13,3.1-26.1,4.6-39.2c0.2-2.1,0.5-4.7,3.1-4.8c2.8-0.1,3.1,2.4,3.4,4.8c2.6,20.4,4.4,41,7.9,61.3
	c4.7,27.1,10.9,53.8,18.1,80.3c8.2,30.2,18.8,59.4,31.1,88c12.4,28.8,26.8,56.7,42.8,83.8c12.3,20.8,26.6,40.2,39.2,60.7
	c11.1,18.2,18.9,37.7,22.6,58.7c2.3,12.8,3.6,25.7,2.7,38.7c-1.4,19.7-5.7,38.7-13.4,57c-4.6,10.9-10.2,21.3-17,30.8
	c-9.4,13-20.4,24.8-33.2,34.9c-11.9,9.3-24.6,17-38.3,22.9c-13.1,5.7-26.8,9.5-41.1,11.4C368.9,668.5,360.7,669.5,355.9,669.3z
	 M212,538.7c6.2,25.1,19.1,46.5,36.7,65c12.4,13,27.2,22.6,43.5,30.2c18,8.4,37,12.2,56.6,13.3c5.3,0.3,10.6-0.5,15.8-0.7
	c7.4-0.3,14.7-1.5,21.7-3.3c19.5-5.1,37.6-13.3,53.9-25.7c12.4-9.4,22.8-20.3,31.7-32.9c10-14.2,17.1-29.9,21.5-46.7
	c2.3-8.6,3.8-17.5,4.1-26.5c0.2-6.7,0.6-13.4,0.1-20.2c-0.7-9.3-2.4-18.3-4.7-27.3c-4.7-18.7-13.7-35.4-24.7-51.1
	c-19.5-27.6-36.8-56.6-52.6-86.5c-11.6-22-21.5-44.8-31.1-67.7c-4.9-11.6-9.3-23.5-13.1-35.5c-6.8-21.6-13.8-43.2-18.9-66.6
	c-5.3,23.8-11.9,45.8-19.4,67.5c-6.7,19.6-14.5,38.9-22.7,58c-11.3,26.1-24.2,51.5-38.4,76.1c-12,20.9-25.4,41-39.3,60.7
	c-8.1,11.5-12.7,24.5-14.1,38.5c-1.6,16.9,2.8,32.6,10.6,47.5c6.3,12.1,14.6,22.7,24.6,32.1c5.9,5.5,12.2,10.2,19,14.3
	c10.3,6.2,21.5,11,33.3,13.7c13.4,3.1,27.1,4.5,40.7,1.8c18.8-3.8,34.2-13.5,45.3-29.5c7.2-10.3,11.3-21.9,12.8-34.3
	c1.1-9.4-0.3-18.7-4.7-27.1c-6.2-11.6-15.8-19.2-28.7-22.4c-11.7-2.9-22.1-1.3-30.6,8c-8.1,8.8-10.5,26.8,3,32.2
	c4.8,1.9,12.2,0.9,14.9-3.5c2.6-4.2,0.5-9.8-3.7-10.1c-1.5-0.1-2.7,0.3-3.1,1.9c-0.2,0.6-1.1,1.2-0.1,1.9c1.5,1.2,1.7-1.5,3-1
	c0.2,0.1,0.5,0.3,0.7,0.5c-0.4,1.5-0.6,3.1-2.9,3.1c-1.8,0-2.9-0.7-3.8-2c-1.2-1.6,0.1-3,0.8-4.1c2.2-3.7,6.5-4.2,10.1-1.4
	c5.8,4.6,4,14.4-3.3,18.5c-8.5,4.7-20.4,0.8-25.6-9.1c-7.8-14.8,1.8-35.4,18.9-42.1c9.2-3.6,18.5-2.8,28-0.2
	c17,4.6,28.2,15.7,35.4,31c5.9,12.4,5.5,26,2.7,39c-5.3,24.3-18.2,43.7-39.4,57.3c-12.2,7.9-25.5,12.3-39.7,13.6
	c-13,1.2-26,0-38.7-2.8c-26.7-6.1-50.1-18.8-69.7-38.1c-7.3-7.1-13.6-15-19.5-23.4C209.9,528,210.7,533.4,212,538.7z"/>
</svg>
