<svg version="1" xmlns="http://www.w3.org/2000/svg" width="933.333" height="933.333" viewBox="0 0 700.000000 700.000000"><path d="M349.4 35.1c-.3.6-2.4 15.1-4.4 32.3-4.4 35.7-5.2 40.6-12.6 72.8-21.1 91.7-53.2 165.9-107.4 248.3-8.7 13.2-18.5 29.2-21.9 35.5-26 49.6-24.3 111.9 4.5 160.7 20.4 34.7 53.7 61.7 91.3 74.2 18.3 6 29.1 7.6 53.1 7.6 18.4-.1 23-.4 32-2.3C447.2 650.7 495.4 606 512.5 545c9.2-33 8.4-63.7-2.6-97.5-5.6-17.2-12.3-29.7-33.4-62-22.3-34.2-33-52.6-47.9-82.5-39.5-79.2-61-154.7-72.6-255-.7-5.8-1.7-11.3-2.2-12.3-1-1.9-3.3-2.3-4.4-.6zm5.9 136.4c4.8 18.8 16.6 56.8 22.6 72.4 21.9 56.8 45.9 102.9 83.1 159.1 21.4 32.4 27.4 45 32.6 69 2.7 11.9 2.7 46 .1 57-11.7 49.5-42.8 86.8-87.9 105.3-17.3 7.1-28.2 9.5-47.3 10.3-23 1-43.3-2.6-63.9-11.2-42.4-17.7-75.1-57.1-84.1-101.3-.9-4.5-1.5-8.5-1.3-8.7.3-.2 3.3 3.2 6.8 7.6 24.3 30.9 59.9 50.3 99.1 54 52.9 5 95.6-29.1 100.9-80.7 1.9-18-3.5-33-16.4-45.9-11.2-11.1-23.8-16-39.6-15.2-6.7.4-9.6 1-13.7 3.1-17.2 8.8-24.1 29.9-14.4 43.5 9.3 12.8 30.1 9.2 30.1-5.2 0-7.5-8.6-11.5-12.9-6-2.2 2.8-1.9 5 1 5.9 2.3.8 3.9-.1 3.9-2.2 0-1.3-.2-1.3-1.6-.2-1.4 1.2-1.6 1.1-1.3-.6.6-2.9 4.4-3.1 6.3-.3 2.2 3.1 2 5.2-.7 8.3-1.6 2-3.5 2.8-6.8 3.2-10.6 1.2-18.1-8.1-15.9-19.8 1.3-6.6 3.1-9.8 8.2-14.5 6.3-5.8 12.2-7.8 20.8-7.1 14 1.2 25 7.3 32.7 18.2 5.9 8.5 7.8 15 7.8 26.5-.1 11.5-2.1 19.6-7.5 30.5-17.7 35.3-56.5 48.4-100.5 33.9-41.8-13.8-75.1-54.1-77.2-93.3-1.1-21.3 3.2-33.7 21.2-60.3 23.7-35 36.8-57.2 53.1-89.8 23.1-46.3 44.7-103.4 55.4-146.8 1.8-7.3 3.4-13.1 3.5-13 .2.2 1.9 6.6 3.8 14.3z"/></svg>