<?xml version="1.0" standalone="no"?>
<!DOCTYPE svg PUBLIC "-//W3C//DTD SVG 20010904//EN"
 "http://www.w3.org/TR/2001/REC-SVG-20010904/DTD/svg10.dtd">
<svg version="1.0" xmlns="http://www.w3.org/2000/svg"
 width="700.000000pt" height="700.000000pt" viewBox="0 0 700.000000 700.000000"
 preserveAspectRatio="xMidYMid meet">
<metadata>
Created by potrace 1.11, written by Peter Selinger 2001-2013
</metadata>
<g transform="translate(0.000000,700.000000) scale(0.100000,-0.100000)"
fill="#000000" stroke="none">
<path d="M3260 6884 c-684 -62 -1256 -275 -1777 -660 -685 -508 -1152 -1249
-1312 -2084 -46 -237 -55 -344 -55 -640 0 -296 9 -403 55 -640 160 -836 627
-1576 1313 -2085 474 -351 989 -556 1606 -642 176 -24 644 -24 820 0 618 86
1132 291 1607 643 685 508 1152 1249 1312 2084 46 237 55 344 55 640 0 296 -9
403 -55 640 -160 835 -627 1576 -1312 2084 -467 346 -979 554 -1572 637 -135
19 -567 33 -685 23z m278 -241 c5 -10 15 -67 21 -128 48 -425 104 -739 201
-1125 94 -372 158 -571 290 -900 181 -454 382 -835 695 -1315 100 -154 201
-313 224 -354 108 -191 175 -395 206 -631 57 -416 -79 -892 -349 -1229 -51
-63 -181 -194 -256 -259 -112 -95 -331 -220 -488 -276 -409 -146 -891 -124
-1277 60 -510 242 -866 728 -944 1290 -19 134 -15 362 9 499 50 290 125 457
380 840 514 773 858 1556 1058 2410 85 359 101 454 146 828 19 158 38 292 41
297 10 16 33 12 43 -7z"/>
<path d="M3475 5283 c-112 -443 -308 -962 -535 -1421 -156 -317 -277 -525
-485 -837 -189 -285 -212 -325 -247 -435 -20 -64 -23 -96 -23 -215 0 -117 4
-153 24 -220 49 -167 156 -342 292 -476 222 -222 501 -339 804 -339 292 0 520
134 651 383 49 94 74 185 81 297 4 81 2 105 -17 160 -61 182 -204 294 -391
307 -67 5 -83 3 -130 -19 -104 -49 -162 -135 -162 -240 0 -69 29 -119 85 -144
74 -33 168 6 168 70 0 46 -70 76 -78 33 -2 -12 1 -15 12 -11 9 3 16 1 16 -4 0
-17 -18 -24 -41 -17 -29 9 -22 55 12 74 37 21 76 7 96 -33 43 -91 -52 -192
-161 -172 -100 19 -169 109 -168 221 0 182 149 324 341 325 204 0 387 -111
482 -295 47 -91 61 -150 60 -257 -4 -452 -351 -825 -806 -867 -222 -20 -467
28 -690 134 -208 99 -373 236 -548 455 l-28 35 6 -49 c18 -137 89 -329 176
-472 229 -379 600 -625 1043 -690 133 -20 370 -15 484 10 393 85 740 327 949
661 97 154 180 384 204 563 15 116 7 395 -15 492 -53 233 -121 373 -338 700
-346 522 -573 955 -797 1518 -74 186 -193 561 -252 794 -17 68 -32 124 -33
126 -2 1 -20 -64 -41 -145z"/>
</g>
</svg>
